<svg width="298" height="59" viewBox="0 0 298 59" fill="none" xmlns="http://www.w3.org/2000/svg">
<path fill-rule="evenodd" clip-rule="evenodd" d="M51.6593 48.974C46.253 55.1209 38.3295 59 29.5 59C13.2076 59 0 45.7924 0 29.5C0 13.2076 13.2076 0 29.5 0C38.7017 0 46.9194 4.21299 52.3294 10.8153C54.1272 10.2847 56.0303 10 58 10H278C289.046 10 298 18.9543 298 30C298 41.0457 289.046 50 278 50H58C55.7838 50 53.6517 49.6395 51.6593 48.974Z" fill="url(#paint0_linear_13_2)"/>
<path d="M30.504 40.6968C30.705 40.8971 30.8645 41.1352 30.9733 41.3973C31.0822 41.6594 31.1382 41.9404 31.1382 42.2242C31.1382 42.5079 31.0822 42.789 30.9733 43.051C30.8645 43.3131 30.705 43.5512 30.504 43.7515L29.4366 44.8188C27.4141 46.8414 24.671 47.9776 21.8107 47.9776C18.9504 47.9776 16.2073 46.8414 14.1848 44.8188C12.1622 42.7963 11.026 40.0532 11.026 37.1929C11.026 34.3326 12.1622 31.5895 14.1848 29.567L18.5188 25.2347C20.4621 23.2866 23.0767 22.1553 25.8271 22.0724C28.5775 21.9896 31.2555 22.9615 33.3125 24.7891C33.5249 24.9779 33.698 25.2066 33.8219 25.4623C33.9459 25.718 34.0183 25.9956 34.035 26.2792C34.0517 26.5629 34.0123 26.847 33.9192 27.1155C33.8261 27.3839 33.681 27.6314 33.4922 27.8438C33.3034 28.0561 33.0747 28.2292 32.819 28.3532C32.5633 28.4772 32.2857 28.5496 32.0021 28.5663C31.7184 28.5829 31.4342 28.5436 31.1658 28.4505C30.8973 28.3573 30.6499 28.2122 30.4375 28.0235C29.204 26.9279 27.5985 26.3451 25.9495 26.3942C24.3004 26.4433 22.7325 27.1206 21.5663 28.2876L17.2359 32.6145C16.0225 33.8278 15.3409 35.4734 15.3409 37.1893C15.3409 38.9052 16.0225 40.5508 17.2359 41.7642C18.4492 42.9775 20.0948 43.6591 21.8107 43.6591C23.5266 43.6591 25.1722 42.9775 26.3855 41.7642L27.4529 40.6968C27.6531 40.4963 27.891 40.3373 28.1527 40.2288C28.4145 40.1203 28.6951 40.0644 28.9784 40.0644C29.2618 40.0644 29.5424 40.1203 29.8042 40.2288C30.0659 40.3373 30.3037 40.4963 30.504 40.6968ZM43.8152 15.1812C41.7911 13.1618 39.0485 12.0277 36.1893 12.0277C33.33 12.0277 30.5875 13.1618 28.5634 15.1812L27.496 16.2485C27.0909 16.6536 26.8634 17.203 26.8634 17.7759C26.8634 18.3487 27.0909 18.8981 27.496 19.3032C27.9011 19.7083 28.4505 19.9359 29.0234 19.9359C29.5962 19.9359 30.1456 19.7083 30.5507 19.3032L31.618 18.2359C32.8314 17.0226 34.477 16.3409 36.1929 16.3409C37.9088 16.3409 39.5544 17.0226 40.7677 18.2359C41.9811 19.4492 42.6627 21.0948 42.6627 22.8107C42.6627 24.5266 41.9811 26.1722 40.7677 27.3856L36.4355 31.7196C35.2683 32.8861 33.6995 33.5624 32.05 33.6102C30.4006 33.6579 28.7952 33.0735 27.5625 31.9766C27.3501 31.7878 27.1027 31.6427 26.8342 31.5496C26.5658 31.4564 26.2816 31.4171 25.9979 31.4338C25.7143 31.4505 25.4367 31.5229 25.181 31.6468C24.9253 31.7708 24.6966 31.9439 24.5078 32.1563C24.319 32.3686 24.1739 32.6161 24.0808 32.8846C23.9877 33.153 23.9483 33.4372 23.965 33.7208C23.9817 34.0045 24.0541 34.2821 24.1781 34.5377C24.302 34.7934 24.4751 35.0222 24.6875 35.211C26.7431 37.0381 29.4193 38.0107 32.1684 37.9295C34.9174 37.8483 37.5316 36.7196 39.4758 34.7743L43.8098 30.442C45.8316 28.4184 46.9677 25.6751 46.9687 22.8145C46.9697 19.954 45.8356 17.2099 43.8152 15.1848V15.1812Z" fill="white"/>
<path d="M65.9176 39V21.5455H72.1392C73.4972 21.5455 74.6222 21.7926 75.5142 22.2869C76.4063 22.7812 77.0739 23.4574 77.517 24.3153C77.9602 25.1676 78.1818 26.1278 78.1818 27.196C78.1818 28.2699 77.9574 29.2358 77.5085 30.0938C77.0653 30.946 76.3949 31.6222 75.4972 32.1222C74.6051 32.6165 73.483 32.8636 72.1307 32.8636H67.8523V30.6307H71.892C72.75 30.6307 73.446 30.483 73.9801 30.1875C74.5142 29.8864 74.9062 29.4773 75.1562 28.9602C75.4062 28.4432 75.5312 27.8551 75.5312 27.196C75.5312 26.5369 75.4062 25.9517 75.1562 25.4403C74.9062 24.929 74.5114 24.5284 73.9716 24.2386C73.4375 23.9489 72.733 23.804 71.858 23.804H68.5511V39H65.9176ZM86.5426 39.2642C85.2528 39.2642 84.142 38.9886 83.2102 38.4375C82.2841 37.8807 81.5682 37.0994 81.0625 36.0938C80.5625 35.0824 80.3125 33.8977 80.3125 32.5398C80.3125 31.1989 80.5625 30.017 81.0625 28.9943C81.5682 27.9716 82.2727 27.1733 83.1761 26.5994C84.0852 26.0256 85.1477 25.7386 86.3636 25.7386C87.1023 25.7386 87.8182 25.8608 88.5114 26.1051C89.2045 26.3494 89.8267 26.733 90.3778 27.2557C90.929 27.7784 91.3636 28.4574 91.6818 29.2926C92 30.1222 92.1591 31.1307 92.1591 32.3182V33.2216H81.7528V31.3125H89.6619C89.6619 30.642 89.5256 30.0483 89.2528 29.5312C88.9801 29.0085 88.5966 28.5966 88.1023 28.2955C87.6136 27.9943 87.0398 27.8438 86.3807 27.8438C85.6648 27.8438 85.0398 28.0199 84.5057 28.3722C83.9773 28.7187 83.5682 29.1733 83.2784 29.7358C82.9943 30.2926 82.8523 30.8977 82.8523 31.5511V33.0426C82.8523 33.9176 83.0057 34.6619 83.3125 35.2756C83.625 35.8892 84.0597 36.358 84.6165 36.6818C85.1733 37 85.8239 37.1591 86.5682 37.1591C87.0511 37.1591 87.4915 37.0909 87.8892 36.9545C88.2869 36.8125 88.6307 36.6023 88.9205 36.3239C89.2102 36.0455 89.4318 35.7017 89.5852 35.2926L91.9972 35.7273C91.804 36.4375 91.4574 37.0597 90.9574 37.5938C90.4631 38.1222 89.8409 38.5341 89.0909 38.8295C88.3466 39.1193 87.4972 39.2642 86.5426 39.2642ZM94.9865 39V25.9091H97.4496V27.9886H97.5859C97.8246 27.2841 98.245 26.7301 98.8473 26.3267C99.4553 25.9176 100.143 25.7131 100.91 25.7131C101.069 25.7131 101.256 25.7187 101.472 25.7301C101.694 25.7415 101.867 25.7557 101.992 25.7727V28.2102C101.89 28.1818 101.708 28.1506 101.447 28.1165C101.185 28.0767 100.924 28.0568 100.663 28.0568C100.06 28.0568 99.5234 28.1847 99.0518 28.4403C98.5859 28.6903 98.2166 29.0398 97.9439 29.4886C97.6712 29.9318 97.5348 30.4375 97.5348 31.0057V39H94.9865ZM114.007 29.1051L111.697 29.5142C111.601 29.2187 111.447 28.9375 111.237 28.6705C111.033 28.4034 110.754 28.1847 110.402 28.0142C110.05 27.8437 109.609 27.7585 109.081 27.7585C108.359 27.7585 107.757 27.9205 107.274 28.2443C106.791 28.5625 106.55 28.9744 106.55 29.4801C106.55 29.9176 106.712 30.2699 107.036 30.5369C107.359 30.804 107.882 31.0227 108.604 31.1932L110.683 31.6705C111.888 31.9489 112.786 32.3778 113.376 32.9574C113.967 33.5369 114.263 34.2898 114.263 35.2159C114.263 36 114.036 36.6989 113.581 37.3125C113.132 37.9205 112.504 38.3977 111.697 38.7443C110.896 39.0909 109.967 39.2642 108.911 39.2642C107.445 39.2642 106.249 38.9517 105.322 38.3267C104.396 37.696 103.828 36.8011 103.618 35.642L106.081 35.267C106.234 35.9091 106.55 36.3949 107.027 36.7244C107.504 37.0483 108.126 37.2102 108.893 37.2102C109.729 37.2102 110.396 37.0369 110.896 36.6903C111.396 36.3381 111.646 35.9091 111.646 35.4034C111.646 34.9943 111.493 34.6506 111.186 34.3722C110.885 34.0937 110.422 33.8835 109.797 33.7415L107.581 33.2557C106.359 32.9773 105.456 32.5341 104.871 31.9261C104.291 31.3182 104.001 30.5483 104.001 29.6165C104.001 28.8437 104.217 28.1676 104.649 27.5881C105.081 27.0085 105.678 26.5568 106.439 26.233C107.2 25.9034 108.072 25.7386 109.055 25.7386C110.47 25.7386 111.584 26.0455 112.396 26.6591C113.209 27.267 113.746 28.0824 114.007 29.1051ZM122.579 39.2642C121.352 39.2642 120.281 38.983 119.366 38.4205C118.451 37.858 117.741 37.071 117.235 36.0597C116.729 35.0483 116.477 33.8665 116.477 32.5142C116.477 31.1562 116.729 29.9687 117.235 28.9517C117.741 27.9347 118.451 27.1449 119.366 26.5824C120.281 26.0199 121.352 25.7386 122.579 25.7386C123.806 25.7386 124.877 26.0199 125.792 26.5824C126.707 27.1449 127.417 27.9347 127.923 28.9517C128.428 29.9687 128.681 31.1562 128.681 32.5142C128.681 33.8665 128.428 35.0483 127.923 36.0597C127.417 37.071 126.707 37.858 125.792 38.4205C124.877 38.983 123.806 39.2642 122.579 39.2642ZM122.587 37.125C123.383 37.125 124.042 36.9148 124.565 36.4943C125.087 36.0739 125.474 35.5142 125.724 34.8153C125.979 34.1165 126.107 33.3466 126.107 32.5057C126.107 31.6705 125.979 30.9034 125.724 30.2045C125.474 29.5 125.087 28.9347 124.565 28.5085C124.042 28.0824 123.383 27.8693 122.587 27.8693C121.786 27.8693 121.121 28.0824 120.593 28.5085C120.07 28.9347 119.681 29.5 119.425 30.2045C119.175 30.9034 119.05 31.6705 119.05 32.5057C119.05 33.3466 119.175 34.1165 119.425 34.8153C119.681 35.5142 120.07 36.0739 120.593 36.4943C121.121 36.9148 121.786 37.125 122.587 37.125ZM134.074 31.2273V39H131.526V25.9091H133.972V28.0398H134.134C134.435 27.3466 134.906 26.7898 135.548 26.3693C136.196 25.9489 137.011 25.7386 137.994 25.7386C138.886 25.7386 139.668 25.9261 140.338 26.3011C141.009 26.6705 141.528 27.2216 141.898 27.9545C142.267 28.6875 142.452 29.5937 142.452 30.6733V39H139.903V30.9801C139.903 30.0312 139.656 29.2898 139.162 28.7557C138.668 28.2159 137.989 27.946 137.125 27.946C136.534 27.946 136.009 28.0739 135.548 28.3295C135.094 28.5852 134.733 28.9602 134.466 29.4545C134.205 29.9432 134.074 30.5341 134.074 31.2273ZM149.679 39.2898C148.849 39.2898 148.099 39.1364 147.429 38.8295C146.759 38.517 146.227 38.0653 145.835 37.4744C145.449 36.8835 145.256 36.1591 145.256 35.3011C145.256 34.5625 145.398 33.9545 145.682 33.4773C145.966 33 146.349 32.6222 146.832 32.3438C147.315 32.0653 147.855 31.8551 148.452 31.7131C149.048 31.571 149.656 31.4631 150.276 31.3892C151.06 31.2983 151.696 31.2244 152.185 31.1676C152.673 31.1051 153.028 31.0057 153.25 30.8693C153.472 30.733 153.582 30.5114 153.582 30.2045V30.1449C153.582 29.4006 153.372 28.8239 152.952 28.4148C152.537 28.0057 151.918 27.8011 151.094 27.8011C150.236 27.8011 149.56 27.9915 149.065 28.3722C148.577 28.7472 148.239 29.1648 148.051 29.625L145.656 29.0795C145.94 28.2841 146.355 27.642 146.901 27.1534C147.452 26.6591 148.085 26.3011 148.801 26.0795C149.517 25.8523 150.27 25.7386 151.06 25.7386C151.582 25.7386 152.136 25.8011 152.722 25.9261C153.313 26.0455 153.864 26.267 154.375 26.5909C154.892 26.9148 155.315 27.3778 155.645 27.9801C155.974 28.5767 156.139 29.3523 156.139 30.3068V39H153.651V37.2102H153.548C153.384 37.5398 153.136 37.8636 152.807 38.1818C152.477 38.5 152.054 38.7642 151.537 38.9744C151.02 39.1847 150.401 39.2898 149.679 39.2898ZM150.233 37.2443C150.938 37.2443 151.54 37.1051 152.04 36.8267C152.545 36.5483 152.929 36.1847 153.19 35.7358C153.457 35.2812 153.591 34.7955 153.591 34.2784V32.5909C153.5 32.6818 153.324 32.767 153.062 32.8466C152.807 32.9205 152.514 32.9858 152.185 33.0426C151.855 33.0937 151.534 33.142 151.222 33.1875C150.909 33.2273 150.648 33.2614 150.438 33.2898C149.943 33.3523 149.491 33.4574 149.082 33.6051C148.679 33.7528 148.355 33.9659 148.111 34.2443C147.872 34.517 147.753 34.8807 147.753 35.3352C147.753 35.9659 147.986 36.4432 148.452 36.767C148.918 37.0852 149.511 37.2443 150.233 37.2443ZM162.082 21.5455V39H159.533V21.5455H162.082ZM165.51 39V25.9091H168.058V39H165.51ZM166.797 23.8892C166.354 23.8892 165.973 23.7415 165.655 23.446C165.342 23.1449 165.186 22.7869 165.186 22.3722C165.186 21.9517 165.342 21.5937 165.655 21.2983C165.973 20.9972 166.354 20.8466 166.797 20.8466C167.24 20.8466 167.618 20.9972 167.93 21.2983C168.249 21.5937 168.408 21.9517 168.408 22.3722C168.408 22.7869 168.249 23.1449 167.93 23.446C167.618 23.7415 167.24 23.8892 166.797 23.8892ZM171.214 39V37.2528L178.305 28.2443V28.125H171.444V25.9091H181.484V27.767L174.665 36.6648V36.7841H181.722V39H171.214ZM189.996 39.2642C188.706 39.2642 187.595 38.9886 186.663 38.4375C185.737 37.8807 185.021 37.0994 184.516 36.0938C184.016 35.0824 183.766 33.8977 183.766 32.5398C183.766 31.1989 184.016 30.017 184.516 28.9943C185.021 27.9716 185.726 27.1733 186.629 26.5994C187.538 26.0256 188.601 25.7386 189.817 25.7386C190.555 25.7386 191.271 25.8608 191.964 26.1051C192.658 26.3494 193.28 26.733 193.831 27.2557C194.382 27.7784 194.817 28.4574 195.135 29.2926C195.453 30.1222 195.612 31.1307 195.612 32.3182V33.2216H185.206V31.3125H193.115C193.115 30.642 192.979 30.0483 192.706 29.5312C192.433 29.0085 192.05 28.5966 191.555 28.2955C191.067 27.9943 190.493 27.8438 189.834 27.8438C189.118 27.8438 188.493 28.0199 187.959 28.3722C187.43 28.7187 187.021 29.1733 186.732 29.7358C186.447 30.2926 186.305 30.8977 186.305 31.5511V33.0426C186.305 33.9176 186.459 34.6619 186.766 35.2756C187.078 35.8892 187.513 36.358 188.07 36.6818C188.626 37 189.277 37.1591 190.021 37.1591C190.504 37.1591 190.945 37.0909 191.342 36.9545C191.74 36.8125 192.084 36.6023 192.374 36.3239C192.663 36.0455 192.885 35.7017 193.038 35.2926L195.45 35.7273C195.257 36.4375 194.911 37.0597 194.411 37.5938C193.916 38.1222 193.294 38.5341 192.544 38.8295C191.8 39.1193 190.95 39.2642 189.996 39.2642ZM198.244 39V21.5455H201.934V35.9574H209.417V39H198.244ZM211.793 39V25.9091H215.423V39H211.793ZM213.616 24.2216C213.077 24.2216 212.614 24.0426 212.227 23.6847C211.847 23.321 211.656 22.8864 211.656 22.3807C211.656 21.8807 211.847 21.4517 212.227 21.0938C212.614 20.7301 213.077 20.5483 213.616 20.5483C214.156 20.5483 214.616 20.7301 214.997 21.0938C215.384 21.4517 215.577 21.8807 215.577 22.3807C215.577 22.8864 215.384 23.321 214.997 23.6847C214.616 24.0426 214.156 24.2216 213.616 24.2216ZM221.962 31.4318V39H218.332V25.9091H221.792V28.2188H221.945C222.235 27.4574 222.721 26.8551 223.403 26.4119C224.085 25.9631 224.911 25.7386 225.883 25.7386C226.792 25.7386 227.585 25.9375 228.261 26.3352C228.937 26.733 229.462 27.3011 229.837 28.0398C230.212 28.7727 230.4 29.6477 230.4 30.6648V39H226.769V31.3125C226.775 30.5114 226.57 29.8864 226.156 29.4375C225.741 28.983 225.17 28.7557 224.442 28.7557C223.954 28.7557 223.522 28.8608 223.147 29.071C222.778 29.2812 222.488 29.5881 222.278 29.9915C222.073 30.3892 221.968 30.8693 221.962 31.4318ZM236.551 35.233L236.56 30.8778H237.088L241.281 25.9091H245.449L239.815 32.4886H238.955L236.551 35.233ZM233.261 39V21.5455H236.892V39H233.261ZM241.443 39L237.591 33.2983L240.011 30.733L245.696 39H241.443Z" fill="white"/>
<defs>
<linearGradient id="paint0_linear_13_2" x1="0" y1="29" x2="278" y2="29" gradientUnits="userSpaceOnUse">
<stop offset="0.0431655" stop-color="#E330D4"/>
<stop offset="0.201439" stop-color="#D632D9"/>
<stop offset="0.489483" stop-color="#CD71D9"/>
<stop offset="1" stop-color="#4628A4"/>
</linearGradient>
</defs>
</svg>
